REM Ripping Tool: trurip

FILE "Bakuretsu Hunter - Duo Comic (1994)(Hudson - Media Works)(JP).img" BINARY
  TRACK 01 AUDIO
    INDEX 01 00:00:00
  TRACK 02 MODE1/2352
    INDEX 00 00:44:65
    INDEX 01 00:47:65
  TRACK 03 AUDIO
    INDEX 00 04:52:46
    INDEX 01 04:54:46
  TRACK 04 AUDIO
    INDEX 01 05:46:27
  TRACK 05 MODE1/2352
    INDEX 00 05:50:27
    INDEX 01 05:53:27

REM DISC HASHES
REM CRC32 : 688d0b8a
REM MD5   : 8232f6d451147df367ff6bf050803d58
REM SHA1  : 5f39bce19574610f6196a185b453166d0b822f33

REM Gap Append Method: Prev [crc32]
REM Trk 01: ccd25d2f
REM Trk 02: ab65a678
REM Trk 03: 48913cb5
REM Trk 04: 886884d2
REM Trk 05: 00421b43

REM Gap Append Method: Prev [md5]
REM Trk 01: 7938d9aa88f644b60389fa8246f2052e
REM Trk 02: 6190349dca7bf06ccb0c38c18c3ff683
REM Trk 03: d3edb916c8e35509ae9536cc4d09a8fb
REM Trk 04: 5aca16825ec83a669c5dd2b800f33eb9
REM Trk 05: 102b38f7b32a571c9d8e5f91042e28a0

REM Gap Append Method: Prev [sha1]
REM Trk 01: 0fc7f8840f23f43ebfb7041f71427c165f368105
REM Trk 02: 0a282b0909f15c01d1c3e83fbcfbf64c8290ea16
REM Trk 03: d5933082ac7b1d905501439e12b83d114a19ab0d
REM Trk 04: e3655dcddcc29906086a1ea033aa19f1dac9669b
REM Trk 05: a4893cc3477636ae01114825e7ad7b3c2fd3f5fa

REM Gap Append Method: None [crc32]
REM Trk 01: b979500c
REM Trk 02: f64ca574
REM Trk 03: 48913cb5
REM Trk 04: 02864c0e
REM Trk 05: 00421b43
REM Gap 02: 16e86594
REM Gap 03: 7abe247f
REM Gap 05: cee567ee

REM Gap Append Method: None [md5]
REM Trk 01: a25a2c129b7100092cc40e9b6e176a63
REM Trk 02: 6f860f2d754bb187a483347cd795d331
REM Trk 03: d3edb916c8e35509ae9536cc4d09a8fb
REM Trk 04: 1234dd57f3af7775d57493b54d59bceb
REM Trk 05: 102b38f7b32a571c9d8e5f91042e28a0
REM Gap 02: fbd314ec9876f082e173fbb5baf092aa
REM Gap 03: 9df204fbc98bb8965081cb30a89715fc
REM Gap 05: 00625f681cf48de569c7486c901ea585

REM Gap Append Method: None [sha1]
REM Trk 01: 9ac3f1a11d434d186466917f1c7955bf7670c910
REM Trk 02: c0c0f79bc423cb65cf2faa58d856887abe7d8931
REM Trk 03: d5933082ac7b1d905501439e12b83d114a19ab0d
REM Trk 04: aa64beff052e53741bba9c2f10aa781d05c96e38
REM Trk 05: a4893cc3477636ae01114825e7ad7b3c2fd3f5fa
REM Gap 02: 08a9af7bae10b281a8edaad6e9ea6cd1646d0ce0
REM Gap 03: cbe29e0bd725ef1194f8c47619dd42078e841de2
REM Gap 05: d31afa4f5f625fa637fa192e052d852dbbad5518

REM Gap Append Method: Next [crc32]
REM Trk 01: b979500c
REM Trk 02: 7f29ec06
REM Trk 03: 965f070f
REM Trk 04: 02864c0e
REM Trk 05: 8d8233a8

REM Gap Append Method: Next [md5]
REM Trk 01: a25a2c129b7100092cc40e9b6e176a63
REM Trk 02: 09d93d4c84f23de5bf1868a1fbe65980
REM Trk 03: e725eb64abd066f4bc823ca99c3a8558
REM Trk 04: 1234dd57f3af7775d57493b54d59bceb
REM Trk 05: a41bc6a87504fbf8df261878889af453

REM Gap Append Method: Next [sha1]
REM Trk 01: 9ac3f1a11d434d186466917f1c7955bf7670c910
REM Trk 02: 983f1bdbbd14d250cfdc85ce9fbc57e760d4124c
REM Trk 03: 4b4c1520100c96713b5044b9022b254c21647448
REM Trk 04: aa64beff052e53741bba9c2f10aa781d05c96e38
REM Trk 05: 284c5a57b3b824bfb1e9a5eea4b0fb3f5100a938

